<svg width="92" height="46" viewBox="0 0 92 46" fill="none" xmlns="http://www.w3.org/2000/svg">
<path d="M5.70801 13.9541C4.96745 14.1136 4.28385 14.256 3.65723 14.3813C3.38379 14.4383 3.11035 14.4896 2.83691 14.5352C2.57487 14.5807 2.32422 14.6263 2.08496 14.6719C1.8457 14.7061 1.62923 14.7345 1.43555 14.7573C1.25326 14.7801 1.11654 14.7915 1.02539 14.7915C0.831706 14.7915 0.666504 14.7573 0.529785 14.689C0.40446 14.6092 0.341797 14.4554 0.341797 14.2275V12.3135C0.341797 12.097 0.432943 11.9033 0.615234 11.7324C0.797526 11.5501 1.08236 11.459 1.46973 11.459H22.6782C23.0656 11.459 23.3504 11.5501 23.5327 11.7324C23.715 11.9033 23.8062 12.097 23.8062 12.3135V14.2275C23.8062 14.4554 23.7378 14.6092 23.6011 14.689C23.4757 14.7573 23.3162 14.7915 23.1226 14.7915C23.02 14.7915 22.8776 14.7801 22.6953 14.7573C22.513 14.7345 22.3022 14.7061 22.063 14.6719C21.8237 14.6263 21.5674 14.5807 21.2939 14.5352C21.0319 14.4896 20.7642 14.4383 20.4907 14.3813C19.8641 14.256 19.1805 14.1136 18.4399 13.9541V33.6587C18.4399 34.0461 18.4058 34.3879 18.3374 34.6841C18.269 34.9689 18.138 35.2139 17.9443 35.4189C17.762 35.6126 17.5057 35.7607 17.1753 35.8633C16.8449 35.9544 16.4233 36 15.9106 36H8.28857C7.75309 36 7.31445 35.9487 6.97266 35.8462C6.64225 35.7437 6.38021 35.5955 6.18652 35.4019C6.00423 35.2082 5.87891 34.9632 5.81055 34.667C5.74219 34.3708 5.70801 34.0233 5.70801 33.6245V13.9541ZM33.3936 36.5981C32.5391 36.5981 31.6846 36.5298 30.8301 36.3931C29.9756 36.2563 29.1553 36.0399 28.3691 35.7437C27.5944 35.4474 26.8709 35.0601 26.1987 34.5815C25.5265 34.103 24.9398 33.5163 24.4385 32.8213C23.9486 32.1263 23.5612 31.3231 23.2764 30.4116C22.9915 29.4888 22.8491 28.4349 22.8491 27.25C22.8491 26.0879 22.9915 25.0511 23.2764 24.1396C23.5612 23.2168 23.9486 22.4079 24.4385 21.7129C24.9398 21.0179 25.5265 20.4312 26.1987 19.9526C26.8709 19.4627 27.5944 19.0697 28.3691 18.7734C29.1553 18.4658 29.9756 18.2437 30.8301 18.1069C31.6846 17.9702 32.5391 17.9019 33.3936 17.9019C34.1797 17.9019 34.9829 17.9531 35.8032 18.0557C36.6349 18.1468 37.4382 18.3234 38.2129 18.5854C38.999 18.8361 39.7339 19.1836 40.4175 19.6279C41.1125 20.0609 41.7163 20.6191 42.229 21.3027C42.7531 21.9863 43.1632 22.8066 43.4595 23.7637C43.7671 24.7093 43.9209 25.8258 43.9209 27.1133C43.9209 28.4349 43.7728 29.5913 43.4766 30.5825C43.1803 31.5623 42.7702 32.4054 42.2461 33.1118C41.7334 33.8068 41.1353 34.3822 40.4517 34.8379C39.7681 35.2936 39.0332 35.6525 38.2471 35.9146C37.4723 36.1652 36.6691 36.3418 35.8374 36.4443C35.0057 36.5469 34.1911 36.5981 33.3936 36.5981ZM38.6401 32.4966C38.9933 32.4966 39.3408 32.4225 39.6826 32.2744C40.0358 32.1149 40.3434 31.8358 40.6055 31.437C40.8789 31.0382 41.0954 30.4914 41.2549 29.7964C41.4258 29.09 41.5112 28.1956 41.5112 27.1133C41.5112 26.0879 41.4258 25.2448 41.2549 24.584C41.0954 23.9232 40.8789 23.4048 40.6055 23.0288C40.332 22.6414 40.0244 22.3737 39.6826 22.2256C39.3408 22.0775 38.9933 22.0034 38.6401 22.0034C38.3667 22.0034 38.0591 22.0604 37.7173 22.1743C37.3869 22.2882 37.0736 22.5332 36.7773 22.9092C36.4925 23.2738 36.2533 23.8035 36.0596 24.4985C35.8659 25.1821 35.769 26.0993 35.769 27.25C35.769 28.4007 35.8488 29.3236 36.0083 30.0186C36.1678 30.7135 36.3786 31.2433 36.6406 31.6079C36.9027 31.9725 37.2046 32.2118 37.5464 32.3257C37.8996 32.4396 38.2642 32.4966 38.6401 32.4966ZM80.1172 36.5981C79.2627 36.5981 78.4082 36.5298 77.5537 36.3931C76.6992 36.2563 75.8789 36.0399 75.0928 35.7437C74.318 35.4474 73.5946 35.0601 72.9224 34.5815C72.2502 34.103 71.6634 33.5163 71.1621 32.8213C70.6722 32.1263 70.2848 31.3231 70 30.4116C69.7152 29.4888 69.5728 28.4349 69.5728 27.25C69.5728 26.0879 69.7152 25.0511 70 24.1396C70.2848 23.2168 70.6722 22.4079 71.1621 21.7129C71.6634 21.0179 72.2502 20.4312 72.9224 19.9526C73.5946 19.4627 74.318 19.0697 75.0928 18.7734C75.8789 18.4658 76.6992 18.2437 77.5537 18.1069C78.4082 17.9702 79.2627 17.9019 80.1172 17.9019C80.9033 17.9019 81.7065 17.9531 82.5269 18.0557C83.3586 18.1468 84.1618 18.3234 84.9365 18.5854C85.7227 18.8361 86.4575 19.1836 87.1411 19.6279C87.8361 20.0609 88.4399 20.6191 88.9526 21.3027C89.4767 21.9863 89.8869 22.8066 90.1831 23.7637C90.4907 24.7093 90.6445 25.8258 90.6445 27.1133C90.6445 28.4349 90.4964 29.5913 90.2002 30.5825C89.904 31.5623 89.4938 32.4054 88.9697 33.1118C88.457 33.8068 87.8589 34.3822 87.1753 34.8379C86.4917 35.2936 85.7568 35.6525 84.9707 35.9146C84.196 36.1652 83.3927 36.3418 82.561 36.4443C81.7293 36.5469 80.9147 36.5981 80.1172 36.5981ZM85.3638 32.4966C85.717 32.4966 86.0645 32.4225 86.4062 32.2744C86.7594 32.1149 87.0671 31.8358 87.3291 31.437C87.6025 31.0382 87.819 30.4914 87.9785 29.7964C88.1494 29.09 88.2349 28.1956 88.2349 27.1133C88.2349 26.0879 88.1494 25.2448 87.9785 24.584C87.819 23.9232 87.6025 23.4048 87.3291 23.0288C87.0557 22.6414 86.748 22.3737 86.4062 22.2256C86.0645 22.0775 85.717 22.0034 85.3638 22.0034C85.0903 22.0034 84.7827 22.0604 84.4409 22.1743C84.1105 22.2882 83.7972 22.5332 83.501 22.9092C83.2161 23.2738 82.9769 23.8035 82.7832 24.4985C82.5895 25.1821 82.4927 26.0993 82.4927 27.25C82.4927 28.4007 82.5724 29.3236 82.7319 30.0186C82.8914 30.7135 83.1022 31.2433 83.3643 31.6079C83.6263 31.9725 83.9282 32.2118 84.27 32.3257C84.6232 32.4396 84.9878 32.4966 85.3638 32.4966Z" fill="#666666"/>
<path d="M46.416 13.8516C46.416 13.4528 46.4502 13.1053 46.5186 12.8091C46.5869 12.5129 46.7179 12.2679 46.9116 12.0742C47.1053 11.8691 47.373 11.7153 47.7148 11.6128C48.0566 11.5103 48.501 11.459 49.0479 11.459H57.2681C58.1226 11.459 58.9714 11.5216 59.8145 11.647C60.6576 11.7609 61.4608 11.9717 62.2241 12.2793C62.9875 12.5869 63.6938 13.0142 64.3433 13.561C65.0041 14.0965 65.5737 14.7915 66.0522 15.646C66.5308 16.5005 66.9067 17.5259 67.1802 18.7222C67.4536 19.9185 67.5903 21.3255 67.5903 22.9434C67.5903 24.846 67.4422 26.4924 67.146 27.8823C66.8612 29.2609 66.4681 30.4344 65.9668 31.4028C65.4769 32.3713 64.8901 33.1574 64.2065 33.7612C63.5343 34.3537 62.8052 34.8208 62.019 35.1626C61.2443 35.493 60.4354 35.7152 59.5923 35.8291C58.7606 35.943 57.9289 36 57.0972 36H49.0479C48.501 36 48.0566 35.9487 47.7148 35.8462C47.373 35.7437 47.1053 35.5955 46.9116 35.4019C46.7179 35.2082 46.5869 34.9632 46.5186 34.667C46.4502 34.3708 46.416 34.0233 46.416 33.6245V13.8516ZM65.1807 23.3022C65.1807 21.8895 65.0667 20.6021 64.8389 19.4399C64.611 18.2778 64.2521 17.2866 63.7622 16.4663C63.2723 15.646 62.6457 15.008 61.8823 14.5522C61.1304 14.0965 60.2246 13.863 59.165 13.8516V33.6245C60.2246 33.6131 61.1361 33.3397 61.8994 32.8042C62.6628 32.2573 63.2837 31.5168 63.7622 30.5825C64.2521 29.6483 64.611 28.5602 64.8389 27.3184C65.0667 26.0651 65.1807 24.7264 65.1807 23.3022Z" fill="#0000FF"/>
</svg>
